<svg width="24" height="24" viewBox="0 0 24 24" fill="none" xmlns="http://www.w3.org/2000/svg"><path fill-rule="evenodd" clip-rule="evenodd" d="M11.938 4.814c.117.088.514.398.585.452.41.313.731.515 1.104.677.365.158.697.281 1.047.394.178.058.708.216.789.241.53.17.853.34 1.167.667.222.231.36.476.552.909.095.217.139.317.188.419.219.456.439.721.805.912.78.407 2.297 1.394 4.574 2.975a.602.602 0 01.066.924c-.923.872-1.797 1.327-2.636 1.327h-.418c-.686.388-1.295.588-1.838.588-.904 0-1.637-.204-2.838-.687-1.552-.625-2.004-.734-2.625-.518-1.519.527-3.123 2.384-4.757 5.594a.553.553 0 01-.765.242c-1.857-1.039-3.28-2.222-4.264-3.555a8.506 8.506 0 01-1.673-4.56.597.597 0 01.24-.523L5.8 7.967l-1.527-.318c-.463-.097-.614-.708-.253-1.025 1.33-1.172 2.913-1.996 4.74-2.472 1.306-.34 2.153-.105 3.177.662zm-9.012 6.684l-.77.561a7.284 7.284 0 001.412 3.6c.794 1.074 1.93 2.06 3.413 2.95.23-.43.46-.838.69-1.222a8.855 8.855 0 01-2.959-2.455c-.776-.988-1.371-2.134-1.786-3.434zm6.108-6.206c-1.226.32-2.323.807-3.295 1.463l1.577.329c.486.101.62.761.213 1.058l-3.634 2.65c.375 1.308.938 2.439 1.69 3.396a7.767 7.767 0 002.625 2.17l.267.125L8.3 16.4c1.242-1.826 2.503-2.969 3.803-3.42.976-.34 1.565-.197 3.388.537 1.08.435 1.704.608 2.431.608.353 0 .829-.165 1.414-.511a.547.547 0 01.278-.077h.565c.374 0 .81-.175 1.305-.54-1.884-1.297-3.162-2.12-3.814-2.46-.615-.32-.991-.774-1.31-1.438-.058-.12-.11-.239-.204-.452-.139-.313-.224-.465-.325-.57-.16-.166-.33-.256-.699-.374-.067-.021-.6-.18-.793-.242-.382-.124-.747-.26-1.147-.433-.468-.203-.86-.45-1.335-.812-.08-.06-.474-.368-.579-.447-.774-.58-1.293-.724-2.245-.476zm3.812 2.956l2.257.587v1.175c-.728-.11-1.292-.306-1.693-.587-.338-.237-.526-.63-.564-1.175z" fill="#0A1738"></path></svg>