<svg width="24" height="24" viewBox="0 0 24 24" fill="none" xmlns="http://www.w3.org/2000/svg"><path fill-rule="evenodd" clip-rule="evenodd" d="M5.449 5.898l.105.028 5.681 2.046c.466.168.978.143 1.422-.064l.163-.087 2.076-1.234a.62.62 0 01.847.21.607.607 0 01-.122.773l-.09.065-2.076 1.234a3.11 3.11 0 01-2.421.322l-.22-.07-5.071-1.827c-.15.67-.172 1.502-.057 2.497.144 1.237.574 2.217 1.288 2.959a6.18 6.18 0 014.538-1.972c.447 0 .883.047 1.302.136l-.01-.002 8.35-3.146.003-.001.007-.003.018-.006a.61.61 0 01.143-.031l.02-.002h.02a.597.597 0 01.249.044l.068.032.082.054.003.002a.608.608 0 01.23.532l-.003.034a.594.594 0 01-.075.214l-.05.076-4.647 5.859-.027-.063c.313.732.486 1.537.486 2.382 0 3.375-2.761 6.111-6.169 6.111-3.407 0-6.169-2.736-6.169-6.111 0-.703.12-1.378.34-2.006l-.007.02-2.84 1.07a.62.62 0 01-.747-.254l-.049-.1a.608.608 0 01.258-.74l.1-.048 3.58-1.348c-.846-.929-1.351-2.119-1.518-3.552-.171-1.484-.074-2.702.31-3.657a.618.618 0 01.679-.376zM11.512 12c-2.725 0-4.935 2.189-4.935 4.889s2.21 4.889 4.935 4.889c2.726 0 4.936-2.189 4.936-4.89 0-2.7-2.21-4.888-4.936-4.888zm0 1.222c2.045 0 3.702 1.642 3.702 3.667s-1.657 3.666-3.702 3.666c-2.044 0-3.7-1.641-3.7-3.666s1.656-3.667 3.7-3.667zm0 1.223c-1.362 0-2.467 1.094-2.467 2.444 0 1.35 1.105 2.444 2.467 2.444 1.363 0 2.468-1.094 2.468-2.444 0-1.35-1.105-2.444-2.468-2.444zm8.012-4.759l-4.984 1.877-.03-.016a6.179 6.179 0 012.01 1.773l.059.08 2.945-3.714zM7.81 1c1.363 0 2.468 1.094 2.468 2.444 0 1.35-1.105 2.445-2.468 2.445S5.343 4.794 5.343 3.444C5.343 2.094 6.448 1 7.811 1zm0 1.222c-.681 0-1.234.547-1.234 1.222 0 .675.553 1.223 1.234 1.223.682 0 1.234-.548 1.234-1.223S8.493 2.222 7.81 2.222z" fill="#0A1738"></path></svg>