<svg width="24" height="24" viewBox="0 0 24 24" fill="none" xmlns="http://www.w3.org/2000/svg"><path fill-rule="evenodd" clip-rule="evenodd" d="M13.56 1.068c.455-.234.972.172.873.685l-.528 2.714c1.276.816 2.202 1.494 2.786 2.044.205.194.46.582.881 1.29l.073.122.487.83c.132.222.225.37.233.379 1.17 1.326 2.667 3.089 4.49 5.29.133.16.178.38.12.583-.176.622-.506 1.24-.985 1.854a8.403 8.403 0 01-1.692 1.625.597.597 0 01-.547.084l-1.833-.629a.619.619 0 01-.376-.367c-.354-.932-.808-1.4-1.365-1.495a28.142 28.142 0 00-.406-.067l-.186-.028c-.318-.045-.709-.09-1.625-.195a16.09 16.09 0 01-1.36-.206.65.65 0 01-.033.11c-.758 1.95-.758 4.103.013 6.481.143.444-.217.887-.666.821-2.947-.432-5.283-1.306-7.003-2.633-.406-.313-.79-.647-1.154-1a14.272 14.272 0 01-2.039-2.477 9.733 9.733 0 01-.66-1.158.644.644 0 01.03-.59c2.439-4.183 5.283-7.751 8.53-10.703.256-1.006.753-1.724 1.498-2.107l2.444-1.257zm-.571 1.699l-1.327.682c-.43.222-.733.688-.899 1.46a.633.633 0 01-.194.337c-3.132 2.818-5.885 6.23-8.257 10.234.101.187.242.426.423.705.5.77 1.118 1.54 1.86 2.26.331.321.681.625 1.05.91 1.358 1.047 3.188 1.795 5.495 2.235-.563-2.27-.47-4.39.285-6.346-1.362-.553-1.87-1.552-1.87-3.558a.62.62 0 01.612-.628.62.62 0 01.61.628c0 2.148.555 2.537 3.318 2.852.934.106 1.333.152 1.663.2l.194.029c.128.02.26.042.426.07.961.165 1.692.857 2.19 2l1.269.435a7.028 7.028 0 001.2-1.198 4.64 4.64 0 00.66-1.112 221.876 221.876 0 00-4.237-4.985c-.085-.097-.182-.25-.37-.569-.076-.126-.407-.692-.49-.832l-.07-.119c-.34-.57-.585-.943-.665-1.02-.566-.533-1.557-1.247-2.961-2.128a.636.636 0 01-.281-.66l.366-1.882zm.233 5.148l2.445.629V9.8c-.789-.119-1.4-.328-1.834-.629-.367-.254-.57-.673-.61-1.257z" fill="#0A1738"></path></svg>